<svg width="10" height="10" viewBox="0 0 10 10" fill="none" xmlns="http://www.w3.org/2000/svg">
<path d="M9.83855 9.84311C9.7705 9.91013 9.67886 9.94777 9.58334 9.94793C9.48653 9.94752 9.39356 9.91 9.32358 9.84311L7.35483 7.8698C6.52567 8.56625 5.45965 8.9157 4.3791 8.84528C3.29855 8.77486 2.2869 8.29001 1.55515 7.49183C0.823394 6.69366 0.428033 5.6438 0.451521 4.56121C0.475009 3.47863 0.915533 2.4469 1.68122 1.68122C2.4469 0.915533 3.47863 0.475009 4.56121 0.451521C5.6438 0.428033 6.69366 0.823394 7.49183 1.55515C8.29001 2.2869 8.77486 3.29855 8.84528 4.3791C8.9157 5.45965 8.56625 6.52567 7.8698 7.35483L9.83855 9.32358C9.873 9.3575 9.90036 9.39794 9.91903 9.44254C9.9377 9.48713 9.94732 9.535 9.94732 9.58334C9.94732 9.63169 9.9377 9.67956 9.91903 9.72415C9.90036 9.76875 9.873 9.80918 9.83855 9.84311ZM4.66147 8.12501C5.34649 8.12501 6.01613 7.92188 6.58571 7.5413C7.15529 7.16072 7.59922 6.61979 7.86136 5.98691C8.12351 5.35403 8.1921 4.65763 8.05846 3.98576C7.92482 3.3139 7.59495 2.69676 7.11056 2.21237C6.62618 1.72799 6.00903 1.39812 5.33717 1.26448C4.66531 1.13084 3.96891 1.19943 3.33603 1.46157C2.70315 1.72372 2.16222 2.16765 1.78164 2.73723C1.40106 3.3068 1.19793 3.97644 1.19793 4.66147C1.19913 5.57969 1.56443 6.45995 2.21371 7.10923C2.86298 7.75851 3.74325 8.1238 4.66147 8.12501Z" fill="black" fill-opacity="0.2"/>
</svg>