<svg width="17" height="17" viewBox="0 0 17 17" fill="none" xmlns="http://www.w3.org/2000/svg">
<path d="M8.50001 5.66667C9.27918 5.66667 9.91668 5.02917 9.91668 4.25C9.91668 3.47084 9.27918 2.83334 8.50001 2.83334C7.72084 2.83334 7.08334 3.47084 7.08334 4.25C7.08334 5.02917 7.72084 5.66667 8.50001 5.66667ZM8.50001 7.08334C7.72084 7.08334 7.08334 7.72084 7.08334 8.5C7.08334 9.27917 7.72084 9.91667 8.50001 9.91667C9.27918 9.91667 9.91668 9.27917 9.91668 8.5C9.91668 7.72084 9.27918 7.08334 8.50001 7.08334ZM8.50001 11.3333C7.72084 11.3333 7.08334 11.9708 7.08334 12.75C7.08334 13.5292 7.72084 14.1667 8.50001 14.1667C9.27918 14.1667 9.91668 13.5292 9.91668 12.75C9.91668 11.9708 9.27918 11.3333 8.50001 11.3333Z" fill="#3A3541" fill-opacity="0.54"/>
</svg>